<svg xmlns="http://www.w3.org/2000/svg" version="1.1" xmlns:xlink="http://www.w3.org/1999/xlink" xmlns:svgjs="http://svgjs.dev/svgjs" width="1500" height="526" viewBox="0 0 1500 526"><g transform="matrix(1,0,0,1,-0.9090909090909918,0.18236520433396208)"><svg viewBox="0 0 396 139" data-background-color="#ffffff" preserveAspectRatio="xMidYMid meet" height="526" width="1500" xmlns="http://www.w3.org/2000/svg" xmlns:xlink="http://www.w3.org/1999/xlink"><g id="tight-bounds" transform="matrix(1,0,0,1,0.2400000000000091,-0.048191565403840286)"><svg viewBox="0 0 395.52 139.0963831308077" height="139.0963831308077" width="395.52"><g><svg viewBox="0 0 395.52 139.0963831308077" height="139.0963831308077" width="395.52"><g><svg viewBox="0 0 395.52 139.0963831308077" height="139.0963831308077" width="395.52"><g id="textblocktransform"><svg viewBox="0 0 395.52 139.0963831308077" height="139.0963831308077" width="395.52" id="textblock"><g><svg viewBox="0 0 395.52 139.0963831308077" height="139.0963831308077" width="395.52"><g transform="matrix(1,0,0,1,0,0)"><svg width="395.52" viewBox="0.9 -38.9 139.89 49.2" height="139.0963831308077" data-palette-color="#ef5b2a"><path d="M14.2 0.15L14.2 0.15Q10.3 0.15 7.3-1.48 4.3-3.1 2.6-6.1 0.9-9.1 0.9-13.15L0.9-13.15Q0.9-17.2 2.6-20.2 4.3-23.2 7.33-24.85 10.35-26.5 14.3-26.5L14.3-26.5Q17.4-26.5 19.78-25.85 22.15-25.2 23.53-23.9 24.9-22.6 24.9-20.65L24.9-20.65Q24.9-18.3 23.7-16.98 22.5-15.65 20.25-15.65L20.25-15.65Q18.75-15.65 17.28-16.1 15.8-16.55 13.5-16.55L13.5-16.55Q11.6-16.55 10.3-15.95 9-15.35 9-13.75L9-13.75Q9-12.1 10.3-11.38 11.6-10.65 13.5-10.65L13.5-10.65Q15.05-10.65 16.1-10.95 17.15-11.25 18.1-11.55 19.05-11.85 20.25-11.85L20.25-11.85Q22.8-11.85 24.03-10.38 25.25-8.9 25.25-6.6L25.25-6.6Q25.25-4.65 23.8-3.13 22.35-1.6 19.85-0.73 17.35 0.15 14.2 0.15ZM27.05-31.95L27.05-31.95Q27.05-34.1 28.37-35.43 29.7-36.75 32.05-36.75L32.05-36.75Q34.55-36.75 35.77-35.45 37-34.15 37-32L37-32Q37-29.9 35.77-28.63 34.55-27.35 32.05-27.35L32.05-27.35Q29.6-27.35 28.32-28.63 27.05-29.9 27.05-31.95ZM32.05 0L32.05 0Q29.7 0 28.55-1.3 27.4-2.6 27.4-4.55L27.4-4.55 27.4-21.65Q27.4-23.8 28.55-25.05 29.7-26.3 32.05-26.3L32.05-26.3Q34.4-26.3 35.57-25.05 36.75-23.8 36.75-21.75L36.75-21.75 36.75-4.55Q36.75-2.6 35.52-1.3 34.3 0 32.05 0ZM44.35 0L44.35 0Q42.15 0 40.82-1.33 39.5-2.65 39.5-4.6L39.5-4.6 39.5-21.15Q39.5-23.25 40.75-24.7 42-26.15 44.35-26.15L44.35-26.15Q46.65-26.15 47.85-24.7 49.05-23.25 49.05-21.05L49.05-21.05 49.05-18.55 49.95-18.55Q49.95-21.4 50.97-23.05 52-24.7 53.6-25.43 55.2-26.15 56.8-26.15L56.8-26.15Q60.65-26.15 62.45-23.38 64.25-20.6 64.25-15.5L64.25-15.5 64.25-4.6Q64.25-2.65 62.95-1.33 61.65 0 59.45 0L59.45 0Q57.2 0 55.87-1.33 54.55-2.65 54.55-4.6L54.55-4.6 54.55-13.45Q54.55-15.25 53.87-16.25 53.2-17.25 51.9-17.25L51.9-17.25Q50.4-17.25 49.72-16.15 49.05-15.05 49.05-13.35L49.05-13.35 49.05-4.6Q49.05-2.65 47.8-1.33 46.55 0 44.35 0ZM66.64-13L66.64-13Q66.64-16.95 68.22-19.95 69.79-22.95 72.72-24.65 75.64-26.35 79.69-26.35L79.69-26.35Q82.84-26.35 85.37-25.2 87.89-24.05 89.34-22.13 90.79-20.2 90.79-17.9L90.79-17.9Q90.79-15.5 89.39-14.5 87.99-13.5 85.24-13.5L85.24-13.5 74.74-13.5Q74.74-12.2 75.77-11.35 76.79-10.5 79.24-10.5L79.24-10.5Q80.49-10.5 81.57-10.75 82.64-11 83.77-11.23 84.89-11.45 86.29-11.45L86.29-11.45Q88.29-11.45 89.59-10.03 90.89-8.6 90.89-6.1L90.89-6.1Q90.89-3.15 87.87-1.5 84.84 0.15 79.94 0.15L79.94 0.15Q76.49 0.15 73.47-1.2 70.44-2.55 68.54-5.48 66.64-8.4 66.64-13ZM74.89-15.15L82.84-15.15Q83.59-15.15 83.34-15.85L83.34-15.85Q83.14-16.55 82.14-17.3 81.14-18.05 79.24-18.05L79.24-18.05Q77.04-18.05 75.97-17.1 74.89-16.15 74.89-15.15L74.89-15.15ZM101.34 0L101.34 0Q99.24 0 97.92-1.33 96.59-2.65 96.59-4.65L96.59-4.65 96.59-15.8Q95.29-15.5 94.24-16.15 93.19-16.8 92.57-18.1 91.94-19.4 91.94-20.95L91.94-20.95Q91.94-22.5 92.59-23.83 93.24-25.15 94.32-25.85 95.39-26.55 96.69-26.15L96.69-26.15Q96.94-29.85 97.89-32.73 98.84-35.6 100.82-37.25 102.79-38.9 105.99-38.9L105.99-38.9Q108.74-38.9 110.39-37.77 112.04-36.65 112.72-35 113.39-33.35 113.14-31.65L113.14-31.65Q112.89-30 111.79-28.78 110.69-27.55 108.54-27.55L108.54-27.55Q107.04-27.55 106.04-28.15 105.04-28.75 104.37-29.63 103.69-30.5 103.19-31.3L103.19-31.3Q101.94-33.3 100.64-32.65L100.64-32.65Q99.99-32.3 99.94-31.53 99.89-30.75 100.44-29.75L100.44-29.75 101.54-27.85Q102.39-26.45 103.34-26.03 104.29-25.6 105.74-25.8L105.74-25.8 108.14-26.15Q110.44-26.5 111.89-24.9 113.34-23.3 113.34-20.95L113.34-20.95Q113.34-18.5 111.87-17.03 110.39-15.55 108.24-15.8L108.24-15.8 106.14-16.05 106.14-4.65Q106.14-2.65 104.84-1.33 103.54 0 101.34 0ZM124.84 10.3L124.84 10.3Q121.49 10.3 119.36 9.2 117.24 8.1 116.04 6.3L116.04 6.3Q115.04 4.75 114.91 3.05 114.79 1.35 115.54-0.13 116.29-1.6 117.79-2.4L117.79-2.4Q119.34-3.25 120.89-3.08 122.44-2.9 123.74-1.93 125.04-0.95 125.74 0.6L125.74 0.6Q126.49 2.25 127.26 3.03 128.04 3.8 129.29 3.35L129.29 3.35Q130.49 2.95 130.16 1.15 129.84-0.65 128.84-3.1L128.84-3.1 126.99-3.1Q124.84-3.1 122.69-4.65 120.54-6.2 119.09-9.55L119.09-9.55 114.99-19.05Q114.04-21.3 114.81-23.2 115.59-25.1 117.64-25.95L117.64-25.95Q119.54-26.8 121.39-26.05 123.24-25.3 124.29-22.85L124.29-22.85 128.09-14Q129.04-11.85 130.16-10.9 131.29-9.95 132.54-10.6L132.54-10.6Q133.64-11.2 133.74-12.28 133.84-13.35 132.69-14.9L132.69-14.9Q132.19-15.6 131.51-16.45 130.84-17.3 130.31-18.43 129.79-19.55 129.79-20.95L129.79-20.95Q129.79-23.3 131.39-24.83 132.99-26.35 135.59-26.35L135.59-26.35Q137.94-26.35 139.36-24.85 140.79-23.35 140.79-20.95L140.79-20.95Q140.79-19.25 140.39-17.2 139.99-15.15 139.49-13.4L139.49-13.4 135.89-0.25Q135.09 2.7 133.79 5.1 132.49 7.5 130.34 8.9 128.19 10.3 124.84 10.3Z" opacity="1" transform="matrix(1,0,0,1,0,0)" fill="#ef5b2a" class="wordmark-text-0" data-fill-palette-color="primary" id="text-0"></path></svg></g></svg></g></svg></g></svg></g><g></g></svg></g><defs></defs></svg><rect width="395.52" height="139.0963831308077" fill="none" stroke="none" visibility="hidden"></rect></g></svg></g></svg>